<?xml version="1.0" encoding="UTF-8"?>
<svg width="100" height="100" viewBox="0 0 100 100" xmlns="http://www.w3.org/2000/svg">
  <!-- Small decorative leaves pattern -->
  <g fill="none" stroke="#2d4108" stroke-width="1" opacity="0.3">
    <!-- Leaf 1 -->
    <path d="M10,20 C15,15 25,15 30,25 C25,30 15,30 10,20 Z" />
    
    <!-- Leaf 2 -->
    <path d="M50,10 C55,5 65,5 70,15 C65,20 55,20 50,10 Z" />
    
    <!-- Leaf 3 -->
    <path d="M70,40 C75,35 85,35 90,45 C85,50 75,50 70,40 Z" />
    
    <!-- Leaf 4 -->
    <path d="M30,60 C35,55 45,55 50,65 C45,70 35,70 30,60 Z" />
    
    <!-- Leaf 5 -->
    <path d="M75,75 C80,70 90,70 95,80 C90,85 80,85 75,75 Z" />
    
    <!-- Leaf 6 -->
    <path d="M15,85 C20,80 30,80 35,90 C30,95 20,95 15,85 Z" />
    
    <!-- Small decorative elements -->
    <circle cx="25" cy="25" r="2" />
    <circle cx="65" cy="30" r="2" />
    <circle cx="45" cy="45" r="2" />
    <circle cx="80" cy="60" r="2" />
    <circle cx="35" cy="75" r="2" />
    <circle cx="55" cy="85" r="2" />
  </g>
</svg>
